<svg width="1000" height="1000" viewBox="0 0 1000 1000" fill="none" xmlns="http://www.w3.org/2000/svg">
<g clip-path="url(#clip0_3218_9552)">
<path d="M603.55 103.55H103.55V603.551H603.55V103.55Z" fill="#FF0000"/>
<g filter="url(#filter0_d_3218_9552)">
<path d="M749.893 824.003C757.313 841.811 750.181 909.262 710.837 924.898C671.49 940.533 621.221 924.898 621.221 924.898L530.001 742.46L372.348 900.115V188.085L855.295 671.032H675.358C684.189 687.966 740.464 801.375 749.893 824.003Z" fill="white"/>
<path fill-rule="evenodd" clip-rule="evenodd" d="M414.706 290.233V797.966L541.638 671.032L647.416 882.589C647.416 882.589 676.033 891.72 689.728 882.589C703.423 873.457 717.047 855.067 710.884 840.278C681.788 770.448 605.105 628.72 605.105 628.72H753.196L414.706 290.233Z" fill="#0F1010"/>
</g>
</g>
<defs>
<filter id="filter0_d_3218_9552" x="320.578" y="155.141" width="586.486" height="847.301" filterUnits="userSpaceOnUse" color-interpolation-filters="sRGB">
<feFlood flood-opacity="0" result="BackgroundImageFix"/>
<feColorMatrix in="SourceAlpha" type="matrix" values="0 0 0 0 0 0 0 0 0 0 0 0 0 0 0 0 0 0 127 0" result="hardAlpha"/>
<feOffset dy="18.8253"/>
<feGaussianBlur stdDeviation="25.8848"/>
<feColorMatrix type="matrix" values="0 0 0 0 0 0 0 0 0 0 0 0 0 0 0 0 0 0 0.65 0"/>
<feBlend mode="normal" in2="BackgroundImageFix" result="effect1_dropShadow_3218_9552"/>
<feBlend mode="normal" in="SourceGraphic" in2="effect1_dropShadow_3218_9552" result="shape"/>
</filter>
<clipPath id="clip0_3218_9552">
<rect width="1000" height="1000" fill="white"/>
</clipPath>
</defs>
</svg>
